<svg xmlns="http://www.w3.org/2000/svg" width="395.873" height="28.948" viewBox="0 0 395.873 28.948"><defs><style>.a{fill:#00a5b5;}.b{fill:#508ff4;}.c{fill:#28323a;font-size:14px;font-family:Helvetica-Bold, Helvetica;font-weight:700;}</style></defs><g transform="translate(47.003 120.997)"><g transform="translate(-47.003 -120.997)"><g transform="translate(0 0)"><path class="a" d="M7.821,10.974c.151-.179.307-.355.453-.539A1.38,1.38,0,0,1,9.8,9.869a1.365,1.365,0,0,1,.865,1.377,2.011,2.011,0,0,1-2.608,1.895A2.927,2.927,0,0,1,6.6,8.414a3.823,3.823,0,0,1,6.6,1.13,14.122,14.122,0,0,1,.535,3.286,1.773,1.773,0,0,1-.969,1.695c-.351.219-.739.377-1.089.6A11.906,11.906,0,0,0,9.783,16.4a4.65,4.65,0,0,0-1.417,5.03,5.1,5.1,0,0,0,4.193,3.78,4.039,4.039,0,0,0,3.99-1.866,3.846,3.846,0,0,0-.284-4.215,2.82,2.82,0,0,0-3.83-.7,2.013,2.013,0,0,0-.892,2.1A2.051,2.051,0,0,0,13.2,22.109a2.344,2.344,0,0,0,.509-.026c.02-.053.039-.107.058-.161-.178-.141-.346-.295-.535-.418a1.3,1.3,0,0,1,.712-2.47,1.682,1.682,0,0,1,1.651.9,2.456,2.456,0,0,1-.015,2.5,2.971,2.971,0,0,1-4.334.835,3.913,3.913,0,0,1,.806-6.765,7.851,7.851,0,0,1,2.589-.557,4.122,4.122,0,0,1,3.4,1.518,6.809,6.809,0,0,1,.384,8.714,7.607,7.607,0,0,1-5.046,2.687,12.215,12.215,0,0,1-3.145-.041,3.374,3.374,0,0,1-2.884-2.5.578.578,0,0,0-.586-.479A3.666,3.666,0,0,1,3.613,23.46a8.684,8.684,0,0,1-.144-6.548.7.7,0,0,0-.241-.932A8.949,8.949,0,0,1,.071,7.757,3.674,3.674,0,0,1,2.49,4.567a.853.853,0,0,0,.584-.694A4.385,4.385,0,0,1,5.957.55,8.986,8.986,0,0,1,16.266,3.7c.109.149.216.3.37.516.182-.158.34-.306.509-.442a8.87,8.87,0,0,1,9.669-1.342,4.322,4.322,0,0,1,2.455,2.742c.053.162.149.379.282.435a4.163,4.163,0,0,1,2.386,3.476,9.039,9.039,0,0,1-3.993,9.088,5.079,5.079,0,0,1-3.735.48,8.233,8.233,0,0,1-4-1.89,4.853,4.853,0,0,1-1.6-4.716,10.417,10.417,0,0,1,.648-2.2,3.818,3.818,0,0,1,3.4-2.449,3.688,3.688,0,0,1,3.393,1.715,2.839,2.839,0,0,1-.015,3.425A2.49,2.49,0,0,1,23.151,13.6a1.823,1.823,0,0,1-1.4-2.121,1.282,1.282,0,0,1,1-1.212,1.3,1.3,0,0,1,1.385.625c.162.223.312.453.468.679l.167-.036a1.919,1.919,0,0,0,.076-.486,2.058,2.058,0,0,0-1.513-1.716,1.991,1.991,0,0,0-2.093.754,2.8,2.8,0,0,0,.479,3.86,3.556,3.556,0,0,0,3.9.615,3.645,3.645,0,0,0,2.317-3.339,4.687,4.687,0,0,0-2.4-4.478A4.715,4.715,0,0,0,20.3,6.635a6.51,6.51,0,0,0-2.655,3.122c-.169.4-.336.8-.52,1.2a1.094,1.094,0,0,1-1.168.744c-.542-.066-.749-.49-.832-.959A6.922,6.922,0,0,0,13.09,6.908,5.123,5.123,0,0,0,4.628,9.474a4.054,4.054,0,0,0,1.757,4.319,3.789,3.789,0,0,0,4.306-.35A2.788,2.788,0,0,0,11.345,9.9a2,2,0,0,0-3.7.483,2.378,2.378,0,0,0-.006.541C7.7,10.938,7.761,10.956,7.821,10.974Z" transform="translate(0.003 -0.003)"/><path class="a" d="M1654.7,105.851a6.718,6.718,0,1,1,6.637,6.791A6.695,6.695,0,0,1,1654.7,105.851Zm10.45,0a3.732,3.732,0,1,0-3.715,3.8A3.809,3.809,0,0,0,1665.15,105.847Z" transform="translate(-1448.822 -86.753)"/><path class="a" d="M782.582,105.488v.8c0,1.907-.019,3.815.01,5.721.009.6-.192.825-.793.771a9.95,9.95,0,0,0-1.492,0c-.557.035-.649-.26-.648-.728.009-2.964,0-5.929,0-8.892,0-1.015-.015-2.032.011-3.047,0-.212.157-.595.251-.6a1.223,1.223,0,0,1,.821.23q2.053,1.947,4.042,3.958c.974.984,1.9,2.011,2.855,3.018l.193-.133c.012-.173.035-.346.035-.519,0-1.886.017-3.772-.009-5.659-.008-.55.183-.748.723-.709a10.474,10.474,0,0,0,1.492,0c.541-.04.739.165.729.709-.025,1.389-.009,2.777-.009,4.166,0,2.571.006,5.141-.011,7.71a2.418,2.418,0,0,1-.238.707c-.27-.1-.616-.121-.8-.306-2.215-2.211-4.406-4.447-6.6-6.674C783,105.872,782.853,105.741,782.582,105.488Z" transform="translate(-682.648 -87.132)"/><path class="a" d="M1783.591,105.495v.8c0,1.907-.017,3.815.01,5.721.009.6-.184.831-.789.774a8.556,8.556,0,0,0-1.428,0c-.552.04-.719-.194-.717-.725.014-3.006,0-6.011,0-9.017,0-.974-.015-1.948.011-2.923.006-.213.154-.6.248-.6a1.228,1.228,0,0,1,.821.226q1.81,1.7,3.556,3.478c1.131,1.15,2.227,2.335,3.338,3.5l.2-.136c.012-.173.036-.345.037-.518,0-1.886.017-3.772-.009-5.659-.007-.546.175-.753.719-.713a8.829,8.829,0,0,0,1.428,0c.6-.055.811.165.8.77-.034,1.346-.01,2.695-.01,4.041,0,2.59.006,5.182-.011,7.773a2.435,2.435,0,0,1-.235.709c-.271-.1-.617-.118-.8-.3-2.215-2.211-4.406-4.447-6.6-6.674C1784.013,105.882,1783.863,105.75,1783.591,105.495Z" transform="translate(-1559.112 -87.139)"/><path class="a" d="M584.894,108.887h-5.251c-.012.234-.035.452-.035.669,0,1.306-.011,2.612,0,3.918.005.445-.153.646-.62.623-.579-.027-1.161-.017-1.741,0-.387.01-.572-.136-.571-.541q.008-6,0-12c0-.365.157-.531.524-.525.518.009,1.036,0,1.555,0,.834,0,.845.011.847.82q0,1.773,0,3.545v.7H584.9v-1.217c0-1.077.014-2.156-.006-3.234-.009-.454.159-.647.618-.621.413.024.829,0,1.243,0,1.069,0,1.069,0,1.069,1.1v9.39c0,.642-.016,1.285.005,1.927.016.478-.166.682-.657.652a10.66,10.66,0,0,0-1.492,0c-.589.049-.81-.148-.794-.766C584.92,111.868,584.894,110.4,584.894,108.887Z" transform="translate(-504.929 -88.453)"/><path class="a" d="M401.236,105.557a31.866,31.866,0,0,1-.039,4.523,5.337,5.337,0,0,1-10.557-.969c-.011-2.466.009-4.932-.011-7.4,0-.525.142-.77.7-.732a12.718,12.718,0,0,0,1.615,0c.516-.031.688.17.684.683q-.028,3.606,0,7.21a2.361,2.361,0,1,0,4.719.011c.015-2.361,0-4.724,0-7.087,0-.8.006-.809.789-.811.539,0,1.077.014,1.616,0,.43-.015.59.17.586.592-.014,1.326-.005,2.653-.005,3.979Z" transform="translate(-342.027 -88.415)"/><path class="a" d="M695.574,103.777v2.36c1.293,0,2.552.022,3.81-.01.559-.015.811.143.76.735a9.3,9.3,0,0,0,0,1.367c.029.483-.154.663-.646.654-1.284-.025-2.568-.009-3.9-.009v2.485h3.277c.539,0,1.079.014,1.616,0,.4-.014.576.147.571.544-.007.539-.01,1.077,0,1.616.009.416-.154.593-.59.591q-3.606-.019-7.213,0c-.469,0-.606-.2-.6-.637q.015-5.907,0-11.814c0-.453.159-.627.617-.625q3.576.021,7.15,0c.505,0,.661.205.641.669a12.538,12.538,0,0,0,0,1.367c.034.533-.161.734-.713.724C698.775,103.757,697.2,103.777,695.574,103.777Z" transform="translate(-606.47 -88.46)"/><path class="a" d="M1019.443,99.058a6.318,6.318,0,0,1,4.23,1.52c.394.328.452.613.049.956a3.054,3.054,0,0,0-.215.224c-.36.372-.671.953-1.095,1.053-.377.09-.881-.351-1.328-.562a3.848,3.848,0,0,0-3.236,6.961,3.556,3.556,0,0,0,3.925-.326c.388-.272.635-.285.936.086s.647.7.97,1.05c.475.516.467.613-.085,1.091a6.673,6.673,0,0,1-8.619-.131,6.859,6.859,0,0,1-1.861-7.544A6.681,6.681,0,0,1,1019.443,99.058Z" transform="translate(-886.68 -86.734)"/><path class="a" d="M1342.478,99.059a6.3,6.3,0,0,1,4.22,1.545c.372.316.4.575.042.914-.375.357-.728.738-1.069,1.128a.521.521,0,0,1-.837.082,3.6,3.6,0,0,0-4.9.263,4.134,4.134,0,0,0-.244,5.259,3.622,3.622,0,0,0,5.009.682c.457-.325.737-.335,1.078.109a8.425,8.425,0,0,0,.931,1c.4.373.362.656-.042,1.018a6.683,6.683,0,0,1-8.182.32,6.8,6.8,0,0,1-2.456-7.683A6.674,6.674,0,0,1,1342.478,99.059Z" transform="translate(-1169.49 -86.735)"/><path class="a" d="M293.062,112.4a.691.691,0,0,0-.124,0,1.375,1.375,0,0,1-1.787-1.137c-.158-.641-.556-.841-1.221-.809-1.219.06-2.444.031-3.667.009a.689.689,0,0,0-.749.475c-.748,1.687-.44,1.447-2.263,1.458-1.452.009-1.451,0-.851-1.3q2.628-5.69,5.264-11.376a2.906,2.906,0,0,1,.577-.635c.213.216.505.4.626.656q2.717,5.819,5.4,11.657c.437.947.4,1-.642,1Zm-4.811-7.591c-.483,1.085-.918,2.064-1.369,3.079h2.766Z" transform="translate(-246.933 -86.762)"/><path class="a" d="M1242.15,112.392a.346.346,0,0,0-.062,0,1.5,1.5,0,0,1-1.951-1.272c-.133-.521-.449-.689-.994-.671-1.263.044-2.527.03-3.791,0a.724.724,0,0,0-.8.5c-.724,1.671-.467,1.423-2.215,1.435-1.484.01-1.484,0-.873-1.32q2.626-5.69,5.263-11.377c.113-.243.391-.409.592-.612a2.784,2.784,0,0,1,.585.625q2.728,5.849,5.421,11.714c.421.91.381.972-.617.973Zm-3.45-4.509-1.4-3.082c-.481,1.084-.918,2.064-1.371,3.082Z" transform="translate(-1077.91 -86.753)"/><path class="a" d="M1441.109,112.392a.346.346,0,0,0-.062,0,1.5,1.5,0,0,1-1.955-1.263c-.141-.571-.5-.7-1.053-.678-1.242.042-2.486.029-3.729,0a.726.726,0,0,0-.8.49c-.735,1.688-.452,1.43-2.272,1.443-1.433.011-1.432,0-.826-1.311q2.626-5.69,5.264-11.377c.115-.245.388-.416.587-.621.2.2.477.372.59.616q2.753,5.9,5.468,11.829c.355.77.3.862-.526.866C1441.566,112.393,1441.338,112.392,1441.109,112.392Zm-3.454-4.5c-.474-1.041-.912-2.006-1.4-3.083-.487,1.087-.922,2.058-1.381,3.083Z" transform="translate(-1252.101 -86.753)"/><path class="a" d="M1894.089,112.637a6.668,6.668,0,0,1-4.051-1.264c-.352-.279-.455-.54-.172-.937a10.641,10.641,0,0,0,.55-.972c.37-.653.469-.658,1.111-.311a14.914,14.914,0,0,0,1.687.766,2.193,2.193,0,0,0,.794.095,1.155,1.155,0,0,0,1.145-.7,1.091,1.091,0,0,0-.28-1.31,8.657,8.657,0,0,0-1.44-.944c-.61-.347-1.279-.6-1.859-.988a3.773,3.773,0,0,1-1.788-4.27,3.931,3.931,0,0,1,3.709-2.721,6.726,6.726,0,0,1,4.331,1.252.563.563,0,0,1,.178.893c-.264.4-.519.8-.78,1.2a.568.568,0,0,1-.931.19,6.771,6.771,0,0,0-1.132-.642,3.94,3.94,0,0,0-1-.3,1.244,1.244,0,0,0-1.468.646,1.193,1.193,0,0,0,.667,1.4c.525.323,1.112.545,1.657.839a13.391,13.391,0,0,1,1.871,1.087,3.605,3.605,0,0,1,1.466,4,3.868,3.868,0,0,1-3.191,2.865A9.482,9.482,0,0,1,1894.089,112.637Z" transform="translate(-1654.534 -86.737)"/><path class="a" d="M1147.1,107.734c.849-1.885,1.741-3.578,2.373-5.364.506-1.431,1.24-2.018,2.788-1.824,1.288.162,1.3.034.746,1.238q-2.659,5.744-5.331,11.483c-.114.245-.387.418-.586.625-.2-.2-.482-.367-.595-.61q-2.745-5.909-5.452-11.836c-.351-.764-.29-.861.531-.865a4.008,4.008,0,0,0,.744-.007c1.235-.245,1.824.316,2.259,1.457C1145.3,103.919,1146.2,105.736,1147.1,107.734Z" transform="translate(-998.897 -88.005)"/><path class="a" d="M492.846,103.786c-.824,0-1.585-.024-2.345.007-.524.021-.71-.193-.686-.7s.01-1,0-1.492c0-.382.157-.566.56-.565q3.917.011,7.836,0c.391,0,.576.139.566.544-.014.539-.016,1.079,0,1.616.014.422-.149.6-.584.59-.784-.02-1.568-.006-2.427-.006v.708c0,2.944-.012,5.888.011,8.831,0,.585-.148.85-.77.793a8.055,8.055,0,0,0-1.428,0c-.587.051-.75-.2-.747-.755.02-2.923.009-5.846.009-8.769C492.846,104.347,492.846,104.1,492.846,103.786Z" transform="translate(-428.87 -88.469)"/><path class="a" d="M887.838,103.795c-.826,0-1.589-.024-2.349.007-.526.021-.707-.2-.683-.7s.009-1,0-1.492c0-.383.161-.564.562-.562q3.917.011,7.836,0c.393,0,.572.144.562.546-.014.539-.017,1.079,0,1.616.015.426-.156.6-.586.587-.783-.02-1.566-.006-2.425-.006v.71c0,2.944-.014,5.888.011,8.831,0,.589-.156.845-.773.79a9.049,9.049,0,0,0-1.492,0c-.6.047-.679-.269-.678-.758.012-2.923.006-5.846.006-8.769C887.838,104.353,887.838,104.109,887.838,103.795Z" transform="translate(-774.716 -88.478)"/><path class="a" d="M1532.731,103.793v3.171c0,2.135-.016,4.271.01,6.405.007.565-.164.8-.745.754a9.33,9.33,0,0,0-1.492,0c-.572.047-.708-.215-.705-.732.015-2.923.007-5.846.007-8.769v-.83c-.783,0-1.524-.036-2.259.011-.623.04-.815-.218-.774-.8.034-.474.007-.953.009-1.43,0-.356.166-.526.534-.525q3.949.007,7.9,0c.368,0,.531.151.526.519-.009.56-.012,1.12,0,1.68.01.4-.162.559-.557.551C1534.4,103.783,1533.611,103.793,1532.731,103.793Z" transform="translate(-1336.807 -88.478)"/><path class="a" d="M974.526,107.51c0,1.927-.016,3.856.01,5.782.007.577-.193.784-.763.74a12.952,12.952,0,0,0-1.554,0c-.454.02-.631-.158-.625-.617.017-1.326.006-2.653.006-3.979,0-2.571.017-5.14-.012-7.71-.007-.612.2-.821.791-.771a8.829,8.829,0,0,0,1.428,0c.546-.042.73.173.725.713C974.514,103.613,974.526,105.561,974.526,107.51Z" transform="translate(-850.703 -88.384)"/><path class="a" d="M1613.637,107.493c0-1.927.014-3.855-.009-5.782-.006-.53.149-.765.707-.728a15.22,15.22,0,0,0,1.616,0c.416-.016.613.133.612.567q-.009,5.968,0,11.938c0,.433-.194.585-.611.569-.559-.021-1.12-.026-1.678,0-.5.025-.648-.187-.644-.662C1613.647,111.431,1613.637,109.462,1613.637,107.493Z" transform="translate(-1412.86 -88.416)"/><path class="a" d="M1978.914,179.49a1.817,1.817,0,0,1,1.792,1.792,1.8,1.8,0,0,1-1.792,1.754,1.777,1.777,0,0,1-1.754-1.754A1.8,1.8,0,0,1,1978.914,179.49Z" transform="translate(-1731.161 -157.158)"/><path class="a" d="M2017.947,99.99a6.269,6.269,0,0,1,4.516,1.736.347.347,0,0,1,.019.523l-1.456,1.512a.327.327,0,0,1-.467,0,3.813,3.813,0,0,0-2.52-.952,3.82,3.82,0,0,0,.019,7.633,3.947,3.947,0,0,0,2.5-.9.369.369,0,0,1,.485.019l1.456,1.549a.373.373,0,0,1-.019.5,6.405,6.405,0,0,1-4.535,1.81,6.719,6.719,0,1,1,0-13.437Z" transform="translate(-1760.975 -87.55)"/><path class="a" d="M2118.41,99.99a6.719,6.719,0,1,1-6.7,6.737A6.707,6.707,0,0,1,2118.41,99.99Zm0,10.451a3.733,3.733,0,1,0-3.714-3.714A3.74,3.74,0,0,0,2118.41,110.441Z" transform="translate(-1848.971 -87.55)"/><path class="a" d="M2233.182,100.289a.357.357,0,0,1,.336-.3h.3a.412.412,0,0,1,.317.187l4.33,8.062h.037l4.33-8.062a.413.413,0,0,1,.317-.187h.3a.357.357,0,0,1,.336.3l2.109,12.542a.342.342,0,0,1-.355.411h-2.2a.379.379,0,0,1-.354-.3l-.84-5.767h-.037l-3.135,6.047a.436.436,0,0,1-.317.205h-.336a.406.406,0,0,1-.317-.205l-3.154-6.047h-.037l-.821,5.767a.363.363,0,0,1-.355.3h-2.2a.342.342,0,0,1-.355-.411Z" transform="translate(-1953.478 -87.55)"/></g><g transform="translate(0 0)"><path class="b" d="M7.821,10.974c.151-.179.307-.355.453-.539A1.38,1.38,0,0,1,9.8,9.869a1.365,1.365,0,0,1,.865,1.377,2.011,2.011,0,0,1-2.608,1.895A2.927,2.927,0,0,1,6.6,8.414a3.823,3.823,0,0,1,6.6,1.13,14.122,14.122,0,0,1,.535,3.286,1.773,1.773,0,0,1-.969,1.695c-.351.219-.739.377-1.089.6A11.906,11.906,0,0,0,9.783,16.4a4.65,4.65,0,0,0-1.417,5.03,5.1,5.1,0,0,0,4.193,3.78,4.039,4.039,0,0,0,3.99-1.866,3.846,3.846,0,0,0-.284-4.215,2.82,2.82,0,0,0-3.83-.7,2.013,2.013,0,0,0-.892,2.1A2.051,2.051,0,0,0,13.2,22.109a2.344,2.344,0,0,0,.509-.026c.02-.053.039-.107.058-.161-.178-.141-.346-.295-.535-.418a1.3,1.3,0,0,1,.712-2.47,1.682,1.682,0,0,1,1.651.9,2.456,2.456,0,0,1-.015,2.5,2.971,2.971,0,0,1-4.334.835,3.913,3.913,0,0,1,.806-6.765,7.851,7.851,0,0,1,2.589-.557,4.122,4.122,0,0,1,3.4,1.518,6.809,6.809,0,0,1,.384,8.714,7.607,7.607,0,0,1-5.046,2.687,12.215,12.215,0,0,1-3.145-.041,3.374,3.374,0,0,1-2.884-2.5.578.578,0,0,0-.586-.479A3.666,3.666,0,0,1,3.613,23.46a8.684,8.684,0,0,1-.144-6.548.7.7,0,0,0-.241-.932A8.949,8.949,0,0,1,.071,7.757,3.674,3.674,0,0,1,2.49,4.567a.853.853,0,0,0,.584-.694A4.385,4.385,0,0,1,5.957.55,8.986,8.986,0,0,1,16.266,3.7c.109.149.216.3.37.516.182-.158.34-.306.509-.442a8.87,8.87,0,0,1,9.669-1.342,4.322,4.322,0,0,1,2.455,2.742c.053.162.149.379.282.435a4.163,4.163,0,0,1,2.386,3.476,9.039,9.039,0,0,1-3.993,9.088,5.079,5.079,0,0,1-3.735.48,8.233,8.233,0,0,1-4-1.89,4.853,4.853,0,0,1-1.6-4.716,10.417,10.417,0,0,1,.648-2.2,3.818,3.818,0,0,1,3.4-2.449,3.688,3.688,0,0,1,3.393,1.715,2.839,2.839,0,0,1-.015,3.425A2.49,2.49,0,0,1,23.151,13.6a1.823,1.823,0,0,1-1.4-2.121,1.282,1.282,0,0,1,1-1.212,1.3,1.3,0,0,1,1.385.625c.162.223.312.453.468.679l.167-.036a1.919,1.919,0,0,0,.076-.486,2.058,2.058,0,0,0-1.513-1.716,1.991,1.991,0,0,0-2.093.754,2.8,2.8,0,0,0,.479,3.86,3.556,3.556,0,0,0,3.9.615,3.645,3.645,0,0,0,2.317-3.339,4.687,4.687,0,0,0-2.4-4.478A4.715,4.715,0,0,0,20.3,6.635a6.51,6.51,0,0,0-2.655,3.122c-.169.4-.336.8-.52,1.2a1.094,1.094,0,0,1-1.168.744c-.542-.066-.749-.49-.832-.959A6.922,6.922,0,0,0,13.09,6.908,5.123,5.123,0,0,0,4.628,9.474a4.054,4.054,0,0,0,1.757,4.319,3.789,3.789,0,0,0,4.306-.35A2.788,2.788,0,0,0,11.345,9.9a2,2,0,0,0-3.7.483,2.378,2.378,0,0,0-.006.541C7.7,10.938,7.761,10.956,7.821,10.974Z" transform="translate(0.003 -0.003)"/><path class="b" d="M1654.7,105.851a6.718,6.718,0,1,1,6.637,6.791A6.695,6.695,0,0,1,1654.7,105.851Zm10.45,0a3.732,3.732,0,1,0-3.715,3.8A3.809,3.809,0,0,0,1665.15,105.847Z" transform="translate(-1448.822 -86.753)"/><path class="b" d="M782.582,105.488v.8c0,1.907-.019,3.815.01,5.721.009.6-.192.825-.793.771a9.95,9.95,0,0,0-1.492,0c-.557.035-.649-.26-.648-.728.009-2.964,0-5.929,0-8.892,0-1.015-.015-2.032.011-3.047,0-.212.157-.595.251-.6a1.223,1.223,0,0,1,.821.23q2.053,1.947,4.042,3.958c.974.984,1.9,2.011,2.855,3.018l.193-.133c.012-.173.035-.346.035-.519,0-1.886.017-3.772-.009-5.659-.008-.55.183-.748.723-.709a10.474,10.474,0,0,0,1.492,0c.541-.04.739.165.729.709-.025,1.389-.009,2.777-.009,4.166,0,2.571.006,5.141-.011,7.71a2.418,2.418,0,0,1-.238.707c-.27-.1-.616-.121-.8-.306-2.215-2.211-4.406-4.447-6.6-6.674C783,105.872,782.853,105.741,782.582,105.488Z" transform="translate(-682.648 -87.132)"/><path class="b" d="M1783.591,105.495v.8c0,1.907-.017,3.815.01,5.721.009.6-.184.831-.789.774a8.556,8.556,0,0,0-1.428,0c-.552.04-.719-.194-.717-.725.014-3.006,0-6.011,0-9.017,0-.974-.015-1.948.011-2.923.006-.213.154-.6.248-.6a1.228,1.228,0,0,1,.821.226q1.81,1.7,3.556,3.478c1.131,1.15,2.227,2.335,3.338,3.5l.2-.136c.012-.173.036-.345.037-.518,0-1.886.017-3.772-.009-5.659-.007-.546.175-.753.719-.713a8.829,8.829,0,0,0,1.428,0c.6-.055.811.165.8.77-.034,1.346-.01,2.695-.01,4.041,0,2.59.006,5.182-.011,7.773a2.435,2.435,0,0,1-.235.709c-.271-.1-.617-.118-.8-.3-2.215-2.211-4.406-4.447-6.6-6.674C1784.013,105.882,1783.863,105.75,1783.591,105.495Z" transform="translate(-1559.112 -87.139)"/><path class="b" d="M584.894,108.887h-5.251c-.012.234-.035.452-.035.669,0,1.306-.011,2.612,0,3.918.005.445-.153.646-.62.623-.579-.027-1.161-.017-1.741,0-.387.01-.572-.136-.571-.541q.008-6,0-12c0-.365.157-.531.524-.525.518.009,1.036,0,1.555,0,.834,0,.845.011.847.82q0,1.773,0,3.545v.7H584.9v-1.217c0-1.077.014-2.156-.006-3.234-.009-.454.159-.647.618-.621.413.024.829,0,1.243,0,1.069,0,1.069,0,1.069,1.1v9.39c0,.642-.016,1.285.005,1.927.016.478-.166.682-.657.652a10.66,10.66,0,0,0-1.492,0c-.589.049-.81-.148-.794-.766C584.92,111.868,584.894,110.4,584.894,108.887Z" transform="translate(-504.929 -88.453)"/><path class="b" d="M401.236,105.557a31.866,31.866,0,0,1-.039,4.523,5.337,5.337,0,0,1-10.557-.969c-.011-2.466.009-4.932-.011-7.4,0-.525.142-.77.7-.732a12.718,12.718,0,0,0,1.615,0c.516-.031.688.17.684.683q-.028,3.606,0,7.21a2.361,2.361,0,1,0,4.719.011c.015-2.361,0-4.724,0-7.087,0-.8.006-.809.789-.811.539,0,1.077.014,1.616,0,.43-.015.59.17.586.592-.014,1.326-.005,2.653-.005,3.979Z" transform="translate(-342.027 -88.415)"/><path class="b" d="M695.574,103.777v2.36c1.293,0,2.552.022,3.81-.01.559-.015.811.143.76.735a9.3,9.3,0,0,0,0,1.367c.029.483-.154.663-.646.654-1.284-.025-2.568-.009-3.9-.009v2.485h3.277c.539,0,1.079.014,1.616,0,.4-.014.576.147.571.544-.007.539-.01,1.077,0,1.616.009.416-.154.593-.59.591q-3.606-.019-7.213,0c-.469,0-.606-.2-.6-.637q.015-5.907,0-11.814c0-.453.159-.627.617-.625q3.576.021,7.15,0c.505,0,.661.205.641.669a12.538,12.538,0,0,0,0,1.367c.034.533-.161.734-.713.724C698.775,103.757,697.2,103.777,695.574,103.777Z" transform="translate(-606.47 -88.46)"/><path class="b" d="M1019.443,99.058a6.318,6.318,0,0,1,4.23,1.52c.394.328.452.613.049.956a3.054,3.054,0,0,0-.215.224c-.36.372-.671.953-1.095,1.053-.377.09-.881-.351-1.328-.562a3.848,3.848,0,0,0-3.236,6.961,3.556,3.556,0,0,0,3.925-.326c.388-.272.635-.285.936.086s.647.7.97,1.05c.475.516.467.613-.085,1.091a6.673,6.673,0,0,1-8.619-.131,6.859,6.859,0,0,1-1.861-7.544A6.681,6.681,0,0,1,1019.443,99.058Z" transform="translate(-886.68 -86.734)"/><path class="b" d="M1342.478,99.059a6.3,6.3,0,0,1,4.22,1.545c.372.316.4.575.042.914-.375.357-.728.738-1.069,1.128a.521.521,0,0,1-.837.082,3.6,3.6,0,0,0-4.9.263,4.134,4.134,0,0,0-.244,5.259,3.622,3.622,0,0,0,5.009.682c.457-.325.737-.335,1.078.109a8.425,8.425,0,0,0,.931,1c.4.373.362.656-.042,1.018a6.683,6.683,0,0,1-8.182.32,6.8,6.8,0,0,1-2.456-7.683A6.674,6.674,0,0,1,1342.478,99.059Z" transform="translate(-1169.49 -86.735)"/><path class="b" d="M293.062,112.4a.691.691,0,0,0-.124,0,1.375,1.375,0,0,1-1.787-1.137c-.158-.641-.556-.841-1.221-.809-1.219.06-2.444.031-3.667.009a.689.689,0,0,0-.749.475c-.748,1.687-.44,1.447-2.263,1.458-1.452.009-1.451,0-.851-1.3q2.628-5.69,5.264-11.376a2.906,2.906,0,0,1,.577-.635c.213.216.505.4.626.656q2.717,5.819,5.4,11.657c.437.947.4,1-.642,1Zm-4.811-7.591c-.483,1.085-.918,2.064-1.369,3.079h2.766Z" transform="translate(-246.933 -86.762)"/><path class="b" d="M1242.15,112.392a.346.346,0,0,0-.062,0,1.5,1.5,0,0,1-1.951-1.272c-.133-.521-.449-.689-.994-.671-1.263.044-2.527.03-3.791,0a.724.724,0,0,0-.8.5c-.724,1.671-.467,1.423-2.215,1.435-1.484.01-1.484,0-.873-1.32q2.626-5.69,5.263-11.377c.113-.243.391-.409.592-.612a2.784,2.784,0,0,1,.585.625q2.728,5.849,5.421,11.714c.421.91.381.972-.617.973Zm-3.45-4.509-1.4-3.082c-.481,1.084-.918,2.064-1.371,3.082Z" transform="translate(-1077.91 -86.753)"/><path class="b" d="M1441.109,112.392a.346.346,0,0,0-.062,0,1.5,1.5,0,0,1-1.955-1.263c-.141-.571-.5-.7-1.053-.678-1.242.042-2.486.029-3.729,0a.726.726,0,0,0-.8.49c-.735,1.688-.452,1.43-2.272,1.443-1.433.011-1.432,0-.826-1.311q2.626-5.69,5.264-11.377c.115-.245.388-.416.587-.621.2.2.477.372.59.616q2.753,5.9,5.468,11.829c.355.77.3.862-.526.866C1441.566,112.393,1441.338,112.392,1441.109,112.392Zm-3.454-4.5c-.474-1.041-.912-2.006-1.4-3.083-.487,1.087-.922,2.058-1.381,3.083Z" transform="translate(-1252.101 -86.753)"/><path class="b" d="M1894.089,112.637a6.668,6.668,0,0,1-4.051-1.264c-.352-.279-.455-.54-.172-.937a10.641,10.641,0,0,0,.55-.972c.37-.653.469-.658,1.111-.311a14.914,14.914,0,0,0,1.687.766,2.193,2.193,0,0,0,.794.095,1.155,1.155,0,0,0,1.145-.7,1.091,1.091,0,0,0-.28-1.31,8.657,8.657,0,0,0-1.44-.944c-.61-.347-1.279-.6-1.859-.988a3.773,3.773,0,0,1-1.788-4.27,3.931,3.931,0,0,1,3.709-2.721,6.726,6.726,0,0,1,4.331,1.252.563.563,0,0,1,.178.893c-.264.4-.519.8-.78,1.2a.568.568,0,0,1-.931.19,6.771,6.771,0,0,0-1.132-.642,3.94,3.94,0,0,0-1-.3,1.244,1.244,0,0,0-1.468.646,1.193,1.193,0,0,0,.667,1.4c.525.323,1.112.545,1.657.839a13.391,13.391,0,0,1,1.871,1.087,3.605,3.605,0,0,1,1.466,4,3.868,3.868,0,0,1-3.191,2.865A9.482,9.482,0,0,1,1894.089,112.637Z" transform="translate(-1654.534 -86.737)"/><path class="b" d="M1147.1,107.734c.849-1.885,1.741-3.578,2.373-5.364.506-1.431,1.24-2.018,2.788-1.824,1.288.162,1.3.034.746,1.238q-2.659,5.744-5.331,11.483c-.114.245-.387.418-.586.625-.2-.2-.482-.367-.595-.61q-2.745-5.909-5.452-11.836c-.351-.764-.29-.861.531-.865a4.008,4.008,0,0,0,.744-.007c1.235-.245,1.824.316,2.259,1.457C1145.3,103.919,1146.2,105.736,1147.1,107.734Z" transform="translate(-998.897 -88.005)"/><path class="b" d="M492.846,103.786c-.824,0-1.585-.024-2.345.007-.524.021-.71-.193-.686-.7s.01-1,0-1.492c0-.382.157-.566.56-.565q3.917.011,7.836,0c.391,0,.576.139.566.544-.014.539-.016,1.079,0,1.616.014.422-.149.6-.584.59-.784-.02-1.568-.006-2.427-.006v.708c0,2.944-.012,5.888.011,8.831,0,.585-.148.85-.77.793a8.055,8.055,0,0,0-1.428,0c-.587.051-.75-.2-.747-.755.02-2.923.009-5.846.009-8.769C492.846,104.347,492.846,104.1,492.846,103.786Z" transform="translate(-428.87 -88.469)"/><path class="b" d="M887.838,103.795c-.826,0-1.589-.024-2.349.007-.526.021-.707-.2-.683-.7s.009-1,0-1.492c0-.383.161-.564.562-.562q3.917.011,7.836,0c.393,0,.572.144.562.546-.014.539-.017,1.079,0,1.616.015.426-.156.6-.586.587-.783-.02-1.566-.006-2.425-.006v.71c0,2.944-.014,5.888.011,8.831,0,.589-.156.845-.773.79a9.049,9.049,0,0,0-1.492,0c-.6.047-.679-.269-.678-.758.012-2.923.006-5.846.006-8.769C887.838,104.353,887.838,104.109,887.838,103.795Z" transform="translate(-774.716 -88.478)"/><path class="b" d="M1532.731,103.793v3.171c0,2.135-.016,4.271.01,6.405.007.565-.164.8-.745.754a9.33,9.33,0,0,0-1.492,0c-.572.047-.708-.215-.705-.732.015-2.923.007-5.846.007-8.769v-.83c-.783,0-1.524-.036-2.259.011-.623.04-.815-.218-.774-.8.034-.474.007-.953.009-1.43,0-.356.166-.526.534-.525q3.949.007,7.9,0c.368,0,.531.151.526.519-.009.56-.012,1.12,0,1.68.01.4-.162.559-.557.551C1534.4,103.783,1533.611,103.793,1532.731,103.793Z" transform="translate(-1336.807 -88.478)"/><path class="b" d="M974.526,107.51c0,1.927-.016,3.856.01,5.782.007.577-.193.784-.763.74a12.952,12.952,0,0,0-1.554,0c-.454.02-.631-.158-.625-.617.017-1.326.006-2.653.006-3.979,0-2.571.017-5.14-.012-7.71-.007-.612.2-.821.791-.771a8.829,8.829,0,0,0,1.428,0c.546-.042.73.173.725.713C974.514,103.613,974.526,105.561,974.526,107.51Z" transform="translate(-850.703 -88.384)"/><path class="b" d="M1613.637,107.493c0-1.927.014-3.855-.009-5.782-.006-.53.149-.765.707-.728a15.22,15.22,0,0,0,1.616,0c.416-.016.613.133.612.567q-.009,5.968,0,11.938c0,.433-.194.585-.611.569-.559-.021-1.12-.026-1.678,0-.5.025-.648-.187-.644-.662C1613.647,111.431,1613.637,109.462,1613.637,107.493Z" transform="translate(-1412.86 -88.416)"/><path class="b" d="M1978.914,179.49a1.817,1.817,0,0,1,1.792,1.792,1.8,1.8,0,0,1-1.792,1.754,1.777,1.777,0,0,1-1.754-1.754A1.8,1.8,0,0,1,1978.914,179.49Z" transform="translate(-1731.161 -157.158)"/><path class="b" d="M2017.947,99.99a6.269,6.269,0,0,1,4.516,1.736.347.347,0,0,1,.019.523l-1.456,1.512a.327.327,0,0,1-.467,0,3.813,3.813,0,0,0-2.52-.952,3.82,3.82,0,0,0,.019,7.633,3.947,3.947,0,0,0,2.5-.9.369.369,0,0,1,.485.019l1.456,1.549a.373.373,0,0,1-.019.5,6.405,6.405,0,0,1-4.535,1.81,6.719,6.719,0,1,1,0-13.437Z" transform="translate(-1760.975 -87.55)"/><path class="b" d="M2118.41,99.99a6.719,6.719,0,1,1-6.7,6.737A6.707,6.707,0,0,1,2118.41,99.99Zm0,10.451a3.733,3.733,0,1,0-3.714-3.714A3.74,3.74,0,0,0,2118.41,110.441Z" transform="translate(-1848.971 -87.55)"/><path class="b" d="M2233.182,100.289a.357.357,0,0,1,.336-.3h.3a.412.412,0,0,1,.317.187l4.33,8.062h.037l4.33-8.062a.413.413,0,0,1,.317-.187h.3a.357.357,0,0,1,.336.3l2.109,12.542a.342.342,0,0,1-.355.411h-2.2a.379.379,0,0,1-.354-.3l-.84-5.767h-.037l-3.135,6.047a.436.436,0,0,1-.317.205h-.336a.406.406,0,0,1-.317-.205l-3.154-6.047h-.037l-.821,5.767a.363.363,0,0,1-.355.3h-2.2a.342.342,0,0,1-.355-.411Z" transform="translate(-1953.478 -87.55)"/></g></g><text class="c" transform="translate(257.87 -95.287)"><tspan x="0" y="0">DASHBOARD</tspan></text></g></svg>